<mxfile host="app.diagrams.net" agent="Mozilla/5.0 (Windows NT 10.0; Win64; x64) AppleWebKit/537.36 (KHTML, like Gecko) Chrome/134.0.0.0 Safari/537.36" version="26.1.3">
  <diagram name="Страница — 1" id="5V1XREvpp2LJKb0Vdx_c">
    <mxGraphModel dx="1430" dy="763" grid="1" gridSize="10" guides="1" tooltips="1" connect="1" arrows="1" fold="1" page="1" pageScale="1" pageWidth="827" pageHeight="1169" math="0" shadow="0">
      <root>
        <mxCell id="0" />
        <mxCell id="1" parent="0" />
        <mxCell id="dryHPmMkhF2rrRR8MtI4-1" value="Шлюз push-уведомлений" style="shape=umlLifeline;perimeter=lifelinePerimeter;whiteSpace=wrap;html=1;container=1;dropTarget=0;collapsible=0;recursiveResize=0;outlineConnect=0;portConstraint=eastwest;newEdgeStyle={&quot;curved&quot;:0,&quot;rounded&quot;:0};" parent="1" vertex="1">
          <mxGeometry x="250" y="400" width="100" height="560" as="geometry" />
        </mxCell>
        <mxCell id="TNECxBhBL_FhLgX6Tl-X-1" value="" style="html=1;points=[[0,0,0,0,5],[0,1,0,0,-5],[1,0,0,0,5],[1,1,0,0,-5]];perimeter=orthogonalPerimeter;outlineConnect=0;targetShapes=umlLifeline;portConstraint=eastwest;newEdgeStyle={&quot;curved&quot;:0,&quot;rounded&quot;:0};" vertex="1" parent="dryHPmMkhF2rrRR8MtI4-1">
          <mxGeometry x="45" y="60" width="10" height="420" as="geometry" />
        </mxCell>
        <mxCell id="dryHPmMkhF2rrRR8MtI4-2" value="Клиент" style="shape=umlLifeline;perimeter=lifelinePerimeter;whiteSpace=wrap;html=1;container=1;dropTarget=0;collapsible=0;recursiveResize=0;outlineConnect=0;portConstraint=eastwest;newEdgeStyle={&quot;curved&quot;:0,&quot;rounded&quot;:0};" parent="1" vertex="1">
          <mxGeometry x="450" y="400" width="100" height="560" as="geometry" />
        </mxCell>
        <mxCell id="TNECxBhBL_FhLgX6Tl-X-4" value="" style="html=1;points=[[0,0,0,0,5],[0,1,0,0,-5],[1,0,0,0,5],[1,1,0,0,-5]];perimeter=orthogonalPerimeter;outlineConnect=0;targetShapes=umlLifeline;portConstraint=eastwest;newEdgeStyle={&quot;curved&quot;:0,&quot;rounded&quot;:0};" vertex="1" parent="dryHPmMkhF2rrRR8MtI4-2">
          <mxGeometry x="45" y="90" width="10" height="80" as="geometry" />
        </mxCell>
        <mxCell id="TNECxBhBL_FhLgX6Tl-X-7" value="" style="html=1;points=[[0,0,0,0,5],[0,1,0,0,-5],[1,0,0,0,5],[1,1,0,0,-5]];perimeter=orthogonalPerimeter;outlineConnect=0;targetShapes=umlLifeline;portConstraint=eastwest;newEdgeStyle={&quot;curved&quot;:0,&quot;rounded&quot;:0};" vertex="1" parent="dryHPmMkhF2rrRR8MtI4-2">
          <mxGeometry x="45" y="260" width="10" height="80" as="geometry" />
        </mxCell>
        <mxCell id="dryHPmMkhF2rrRR8MtI4-4" value="NATS" style="shape=umlLifeline;perimeter=lifelinePerimeter;whiteSpace=wrap;html=1;container=1;dropTarget=0;collapsible=0;recursiveResize=0;outlineConnect=0;portConstraint=eastwest;newEdgeStyle={&quot;curved&quot;:0,&quot;rounded&quot;:0};" parent="1" vertex="1">
          <mxGeometry x="40" y="400" width="100" height="560" as="geometry" />
        </mxCell>
        <mxCell id="dryHPmMkhF2rrRR8MtI4-17" value="Ack/Nack" style="shape=umlFrame;whiteSpace=wrap;html=1;pointerEvents=0;" parent="1" vertex="1">
          <mxGeometry x="20" y="580" width="530" height="60" as="geometry" />
        </mxCell>
        <mxCell id="dryHPmMkhF2rrRR8MtI4-25" value="Таймаут" style="shape=umlFrame;whiteSpace=wrap;html=1;pointerEvents=0;" parent="1" vertex="1">
          <mxGeometry x="20" y="640" width="530" height="110" as="geometry" />
        </mxCell>
        <mxCell id="TNECxBhBL_FhLgX6Tl-X-2" value="Отправка push-уведомления" style="html=1;verticalAlign=bottom;endArrow=block;curved=0;rounded=0;entryX=0;entryY=0;entryDx=0;entryDy=5;" edge="1" target="TNECxBhBL_FhLgX6Tl-X-1" parent="1" source="dryHPmMkhF2rrRR8MtI4-4">
          <mxGeometry relative="1" as="geometry">
            <mxPoint x="230" y="465" as="sourcePoint" />
          </mxGeometry>
        </mxCell>
        <mxCell id="TNECxBhBL_FhLgX6Tl-X-3" value="Отправка подтверждения" style="html=1;verticalAlign=bottom;endArrow=open;dashed=1;endSize=8;curved=0;rounded=0;exitX=0;exitY=1;exitDx=0;exitDy=-5;" edge="1" parent="1">
          <mxGeometry relative="1" as="geometry">
            <mxPoint x="89.81034482758628" y="609.9999999999998" as="targetPoint" />
            <mxPoint x="295" y="609.9999999999998" as="sourcePoint" />
          </mxGeometry>
        </mxCell>
        <mxCell id="TNECxBhBL_FhLgX6Tl-X-5" value="Отправка push-уведомления" style="html=1;verticalAlign=bottom;endArrow=block;curved=0;rounded=0;entryX=0;entryY=0;entryDx=0;entryDy=5;" edge="1" target="TNECxBhBL_FhLgX6Tl-X-4" parent="1" source="dryHPmMkhF2rrRR8MtI4-1">
          <mxGeometry relative="1" as="geometry">
            <mxPoint x="430" y="495" as="sourcePoint" />
          </mxGeometry>
        </mxCell>
        <mxCell id="TNECxBhBL_FhLgX6Tl-X-6" value="Возврат Ack/Nack" style="html=1;verticalAlign=bottom;endArrow=open;dashed=1;endSize=8;curved=0;rounded=0;exitX=0;exitY=1;exitDx=0;exitDy=-5;" edge="1" source="TNECxBhBL_FhLgX6Tl-X-4" parent="1" target="TNECxBhBL_FhLgX6Tl-X-1">
          <mxGeometry relative="1" as="geometry">
            <mxPoint x="310" y="565" as="targetPoint" />
          </mxGeometry>
        </mxCell>
        <mxCell id="TNECxBhBL_FhLgX6Tl-X-8" value="Повторная отправка уведомления" style="html=1;verticalAlign=bottom;endArrow=block;curved=0;rounded=0;entryX=0;entryY=0;entryDx=0;entryDy=5;" edge="1" target="TNECxBhBL_FhLgX6Tl-X-7" parent="1" source="TNECxBhBL_FhLgX6Tl-X-1">
          <mxGeometry relative="1" as="geometry">
            <mxPoint x="425" y="665" as="sourcePoint" />
          </mxGeometry>
        </mxCell>
        <mxCell id="TNECxBhBL_FhLgX6Tl-X-9" value="Возврат Ack/Nack" style="html=1;verticalAlign=bottom;endArrow=open;dashed=1;endSize=8;curved=0;rounded=0;exitX=0;exitY=1;exitDx=0;exitDy=-5;" edge="1" source="TNECxBhBL_FhLgX6Tl-X-7" parent="1" target="TNECxBhBL_FhLgX6Tl-X-1">
          <mxGeometry relative="1" as="geometry">
            <mxPoint x="425" y="735" as="targetPoint" />
          </mxGeometry>
        </mxCell>
        <mxCell id="TNECxBhBL_FhLgX6Tl-X-10" value="Повторный таймаут" style="shape=umlFrame;whiteSpace=wrap;html=1;pointerEvents=0;" vertex="1" parent="1">
          <mxGeometry x="20" y="760" width="530" height="100" as="geometry" />
        </mxCell>
        <mxCell id="TNECxBhBL_FhLgX6Tl-X-11" value="Разрыв соединения" style="html=1;verticalAlign=bottom;endArrow=open;dashed=1;endSize=8;curved=0;rounded=0;" edge="1" parent="1">
          <mxGeometry relative="1" as="geometry">
            <mxPoint x="499.5000000000002" y="809.66" as="targetPoint" />
            <mxPoint x="305" y="809.66" as="sourcePoint" />
          </mxGeometry>
        </mxCell>
      </root>
    </mxGraphModel>
  </diagram>
</mxfile>
